<svg width="56" height="56" viewBox="0 0 56 56" fill="none" xmlns="http://www.w3.org/2000/svg">
<g filter="url(#filter0_d_1901_16110)">
<path d="M4 44.075C4 37.4 4 30.8 4 24.125C4.3 23.15 5.05 22.625 5.875 22.175C6.175 22.025 6.475 21.875 6.775 21.8C7.15 21.725 7.225 21.5 7.225 21.2C7.225 16.475 7.225 11.825 7.225 7.1C7.225 3.725 9.625 1.25 12.85 1.25C23.95 1.25 35.125 1.25 46.225 1.25C47.8 1.25 48.775 2.225 48.775 3.875C48.775 6.05 48.775 8.225 48.775 10.4C48.775 10.55 48.775 10.775 48.775 10.925C51.025 11.675 52 12.95 52 15.275C52 23 52 30.8 52 38.525C52 38.975 52 39.425 51.85 39.875C51.4 41.675 49.825 42.875 47.8 42.875C41.125 42.875 34.525 42.875 27.85 42.875C27.625 42.875 27.475 42.875 27.25 42.875C27.25 42.95 27.25 42.95 27.25 42.95C27.25 43.025 27.25 43.1 27.25 43.175C27.325 44.3 26.8 45.125 25.825 45.65C25 46.1 24.1 46.475 23.275 46.7C20.875 47.375 18.325 47.6 15.85 47.6C12.925 47.6 10 47.375 7.15 46.4C5.8 46.025 4.525 45.5 4 44.075ZM50.425 22.85C50.425 22.625 50.425 22.475 50.425 22.325C50.425 19.925 50.425 17.525 50.425 15.125C50.425 13.4 49.45 12.425 47.725 12.425C36.175 12.425 24.55 12.425 13 12.425C11.5 12.425 10.15 11.975 9.025 11C8.95 10.925 8.875 10.925 8.8 10.85C8.8 14.3 8.8 17.675 8.8 21.05C8.95 21.05 9.1 21.05 9.25 20.975C13.225 20.15 17.2 20.15 21.25 20.825C22.825 21.05 24.4 21.5 25.825 22.325C26.725 23 27.25 23.75 27.25 24.95C27.175 30.2 27.25 35.375 27.25 40.625C27.25 40.85 27.25 41 27.25 41.225C27.4 41.225 27.55 41.225 27.7 41.225C34.45 41.225 41.125 41.225 47.875 41.225C49.45 41.225 50.5 40.25 50.5 38.6C50.5 36.2 50.5 33.725 50.5 31.325C50.5 31.175 50.5 31.025 50.5 30.875C49.225 30.875 47.95 30.875 46.75 30.875C46.15 30.875 45.55 30.8 44.95 30.575C43.225 29.9 42.25 27.95 42.625 26.15C43 24.275 44.575 22.925 46.45 22.925C47.65 22.85 49 22.85 50.425 22.85ZM47.2 7.625C46.975 7.625 46.75 7.625 46.525 7.625C34.9 7.625 23.2 7.625 11.575 7.625C10.75 7.625 10.375 7.325 10.375 6.8C10.375 6.275 10.75 5.975 11.575 5.975C23.2 5.975 34.9 5.975 46.525 5.975C46.75 5.975 46.9 5.975 47.2 5.975C47.2 5.225 47.2 4.55 47.2 3.95C47.2 3.05 46.975 2.825 46.075 2.825C35.05 2.825 24.1 2.825 13.075 2.825C12.7 2.825 12.325 2.825 12.025 2.9C10 3.35 8.65 5.225 8.8 7.1C9.025 9.2 10.675 10.775 12.775 10.775C24.1 10.775 35.425 10.775 46.825 10.775C46.975 10.775 47.05 10.775 47.2 10.7C47.2 9.8 47.2 8.75 47.2 7.625ZM15.625 22.025C13.375 22.025 11.125 22.175 8.95 22.775C7.975 23.075 7 23.45 6.1 23.9C5.425 24.275 5.425 24.65 6.1 25.025C6.625 25.325 7.15 25.55 7.675 25.775C9.4 26.375 11.125 26.6 12.925 26.75C16.075 26.975 19.225 26.9 22.375 26.15C23.275 25.925 24.175 25.55 25.075 25.1C25.825 24.725 25.825 24.275 25.075 23.825C24.625 23.525 24.1 23.3 23.575 23.15C20.95 22.25 18.325 22.1 15.625 22.025ZM5.575 26.675C5.575 27.35 5.65 28.025 5.575 28.7C5.5 29.3 5.8 29.75 6.325 29.975C7.45 30.35 8.5 30.875 9.7 31.1C12.85 31.775 16 31.775 19.225 31.475C21.025 31.325 22.75 30.95 24.475 30.275C25.3 29.9 25.825 29.45 25.675 28.4C25.6 27.875 25.675 27.275 25.675 26.75C19.15 29.075 11.875 29.075 5.575 26.675ZM5.575 36.275C5.575 37.025 5.65 37.7 5.575 38.375C5.575 38.975 5.8 39.35 6.25 39.5C7.075 39.875 7.9 40.25 8.8 40.475C13 41.525 17.275 41.45 21.55 40.7C22.75 40.475 23.95 40.175 25 39.5C25.225 39.35 25.6 39.125 25.6 38.825C25.675 38 25.6 37.1 25.6 36.2C22.375 37.7 19 38 15.625 38C12.175 38.075 8.8 37.775 5.575 36.275ZM5.575 41.075C5.575 41.825 5.575 42.5 5.575 43.25C5.575 43.775 5.725 44.15 6.175 44.375C7 44.75 7.75 45.125 8.575 45.35C12.85 46.4 17.2 46.4 21.55 45.575C22.675 45.35 23.8 44.825 24.925 44.45C25.15 44.375 25.525 44.075 25.525 43.85C25.6 43.025 25.525 42.125 25.525 41.225C19.225 43.475 11.875 43.475 5.575 41.075ZM25.6 31.475C22.375 32.975 19 33.275 15.625 33.275C12.25 33.275 8.8 32.975 5.65 31.475C5.65 32.3 5.65 33.05 5.65 33.8C5.65 34.175 5.8 34.475 6.1 34.625C6.7 34.925 7.3 35.225 7.9 35.45C9.85 36.125 11.95 36.35 13.975 36.425C16.825 36.575 19.675 36.425 22.45 35.675C23.35 35.45 24.25 35 25.075 34.625C25.3 34.55 25.6 34.175 25.6 33.95C25.6 33.2 25.6 32.375 25.6 31.475ZM50.35 29.225C50.35 27.575 50.35 26 50.35 24.425C48.925 24.425 47.575 24.425 46.225 24.425C45.025 24.5 44.05 25.55 44.05 26.75C44.05 27.95 44.95 29.075 46.15 29.15C47.5 29.3 48.925 29.225 50.35 29.225Z" fill="#CF51CE"/>
<path d="M42.0253 15.6505C40.0753 15.6505 38.1253 15.6505 36.2503 15.6505C35.9503 15.6505 35.6503 15.5005 35.4253 15.3505C35.2753 15.2005 35.2003 14.7505 35.3503 14.6005C35.5003 14.3755 35.8003 14.1505 36.1003 14.1505C36.7003 14.0755 37.3003 14.1505 37.9003 14.1505C41.2003 14.1505 44.4253 14.1505 47.7253 14.1505C47.8753 14.1505 47.9503 14.1505 48.1003 14.1505C48.5503 14.2255 48.9253 14.5255 48.9253 14.9755C48.9253 15.4255 48.5503 15.7255 48.1003 15.7255C46.6753 15.7255 45.3253 15.7255 43.9003 15.7255C43.2253 15.6505 42.6253 15.6505 42.0253 15.6505Z" fill="#CF51CE"/>
<path d="M31.9744 15.6512C31.6744 15.6512 31.3744 15.6512 31.1494 15.6512C30.6994 15.6512 30.3994 15.3512 30.3994 14.9012C30.3994 14.4512 30.6994 14.0762 31.1494 14.0762C31.7494 14.0762 32.2744 14.0762 32.8744 14.0762C33.3244 14.0762 33.6244 14.4512 33.6244 14.9012C33.6244 15.3512 33.2494 15.6512 32.7994 15.6512C32.4994 15.6512 32.2744 15.6512 31.9744 15.6512Z" fill="#CF51CE"/>
<path d="M46.3738 27.65C45.9238 27.65 45.5488 27.275 45.5488 26.825C45.5488 26.375 45.9238 26 46.3738 26C46.8238 26 47.1238 26.375 47.1238 26.75C47.1988 27.275 46.8238 27.65 46.3738 27.65Z" fill="#CF51CE"/>
</g>
<defs>
<filter id="filter0_d_1901_16110" x="0" y="0.5" width="56" height="56" filterUnits="userSpaceOnUse" color-interpolation-filters="sRGB">
<feFlood flood-opacity="0" result="BackgroundImageFix"/>
<feColorMatrix in="SourceAlpha" type="matrix" values="0 0 0 0 0 0 0 0 0 0 0 0 0 0 0 0 0 0 127 0" result="hardAlpha"/>
<feOffset dy="4"/>
<feGaussianBlur stdDeviation="2"/>
<feComposite in2="hardAlpha" operator="out"/>
<feColorMatrix type="matrix" values="0 0 0 0 0 0 0 0 0 0 0 0 0 0 0 0 0 0 0.25 0"/>
<feBlend mode="normal" in2="BackgroundImageFix" result="effect1_dropShadow_1901_16110"/>
<feBlend mode="normal" in="SourceGraphic" in2="effect1_dropShadow_1901_16110" result="shape"/>
</filter>
</defs>
</svg>
