<svg width="61" height="32" fill="none" xmlns="http://www.w3.org/2000/svg"><mask id="a" style="mask-type:alpha" maskUnits="userSpaceOnUse" x="0" y="0" width="61" height="32"><ellipse cx="30.208" cy="16.098" rx="30.208" ry="15.303" fill="url(#paint0_linear_1457_20131)"/></mask><g mask="url(#a)"><ellipse cx="30.208" cy="16.098" rx="30.208" ry="15.303" fill="url(#paint1_linear_1457_20131)"/><path d="M39.813 20.345V3.336c0-.26.015-.543.045-.849.06-.306.121-.62.181-.941L12.31 20.345h27.504zm25.67 0v1.194c0 .168-.106.306-.318.413-.181.092-.483.137-.906.137h-20.64v9.32h-3.806v-9.32H9.499c-.453 0-.8-.045-1.042-.137-.242-.107-.408-.245-.498-.413l-.408-1.08L39.768-1.116h3.851v21.462h21.863z" fill="#fff"/></g><defs><linearGradient id="paint0_linear_1457_20131" x1="69.478" y1="-8.386" x2="52.175" y2="43.099" gradientUnits="userSpaceOnUse"><stop stop-color="#F0A"/><stop offset="1" stop-color="#8912DE"/></linearGradient><linearGradient id="paint1_linear_1457_20131" x1="69.478" y1="-8.386" x2="52.175" y2="43.099" gradientUnits="userSpaceOnUse"><stop stop-color="#F0A"/><stop offset="1" stop-color="#8912DE"/></linearGradient></defs></svg>